<svg width="1744" height="1744" viewBox="0 0 1744 1744" fill="none" xmlns="http://www.w3.org/2000/svg">
<g id="Warp &#226;&#128;&#147; logo znak">
<g id="Group 52">
<path id="Union" d="M1497.24 540.238C1507.58 551.764 1507.45 569.262 1496.94 580.632L1058.46 1055.03C1048.31 1066.01 1030.89 1065.81 1021 1054.59L883.876 899.044C877.818 892.173 867.095 892.213 861.089 899.128L726.122 1054.55C716.27 1065.89 698.746 1066.16 688.546 1055.13L247.413 578.009C236.921 566.66 236.767 549.198 247.058 537.667L319.342 456.672C329.531 445.255 347.329 445.063 357.761 456.258L691.742 814.643C697.872 821.221 708.352 821.037 714.247 814.248L852.008 655.615C862.322 643.737 880.739 643.669 891.142 655.469L1031.46 814.634C1037.39 821.359 1047.83 821.488 1053.92 814.912L1384.96 457.586C1395.36 446.357 1413.16 446.5 1423.39 457.896L1497.24 540.238Z" fill="#233562"/>
<path id="Union_2" fill-rule="evenodd" clip-rule="evenodd" d="M1149.7 190.656C1172.41 190.656 1194.04 200.304 1209.22 217.194L1330.39 352.077C1339.4 362.104 1339.25 377.353 1330.04 387.203L1251.23 471.556C1240.8 482.719 1223.04 482.527 1212.85 471.14L1115.42 362.227C1112.55 359.017 1108.45 357.182 1104.14 357.182L638.809 357.182C634.501 357.182 630.398 359.017 627.526 362.227L530.812 470.343C520.631 481.724 502.88 481.922 492.448 470.771L413.868 386.783C404.668 376.949 404.499 361.717 413.479 351.681L533.723 217.309C548.899 200.349 570.581 190.656 593.339 190.656L1149.7 190.656ZM1642.48 703.559C1670.21 734.371 1669.81 781.262 1641.56 811.598L930.186 1575.46C898.49 1609.5 844.553 1609.42 812.95 1575.3L103.308 809.134C75.5308 779.145 74.8302 733.038 101.683 702.218L146.368 650.933C156.561 639.235 174.665 639.01 185.144 650.452L860.342 1387.63C866.334 1394.17 876.642 1394.18 882.648 1387.65L1558.59 652.873C1568.97 641.594 1586.8 641.691 1597.05 653.083L1642.48 703.559ZM883.38 1033.15C877.346 1026.22 866.572 1026.22 860.538 1033.15L776.758 1129.45C768.434 1139.02 768.505 1153.28 776.925 1162.76L860.638 1257.06C866.661 1263.84 877.257 1263.84 883.28 1257.06L966.993 1162.76C975.413 1153.28 975.484 1139.02 967.16 1129.45L883.38 1033.15Z" fill="url(#paint0_linear_641_2428)"/>
</g>
</g>
<defs>
<linearGradient id="paint0_linear_641_2428" x1="-329.909" y1="639.481" x2="725.2" y2="2085.36" gradientUnits="userSpaceOnUse">
<stop stop-color="#7398FF"/>
<stop offset="1" stop-color="#4D6DFA"/>
</linearGradient>
</defs>
</svg>
