<?xml version="1.0" encoding="UTF-8"?>

<svg width="4366" height="1744" viewBox="0 0 4366 1744" fill="none" xmlns="http://www.w3.org/2000/svg">
<g id="Warp &#226;&#128;&#147; logo full">
<g id="by RedStone">
<path id="Shape" fill-rule="evenodd" clip-rule="evenodd" d="M2108.5 1208.21C2096.33 1215.2 2087.09 1224.21 2080.78 1235.25V1135.88H2050.03V1386H2080.78V1351.86C2086.87 1362.68 2095.94 1371.58 2107.99 1378.56C2120.05 1385.55 2134.07 1389.04 2150.07 1389.04C2166.52 1389.04 2181.45 1384.99 2194.86 1376.87C2208.27 1368.76 2218.8 1357.38 2226.46 1342.74C2234.12 1328.09 2237.95 1311.42 2237.95 1292.71C2237.95 1273.78 2234.12 1257.17 2226.46 1242.86C2218.8 1228.55 2208.32 1217.45 2195.03 1209.56C2181.73 1201.68 2166.75 1197.73 2150.07 1197.73C2134.53 1197.73 2120.67 1201.23 2108.5 1208.21ZM2198.07 1256.21C2203.7 1266.57 2206.52 1278.74 2206.52 1292.71C2206.52 1306.91 2203.7 1319.25 2198.07 1329.72C2192.44 1340.2 2184.83 1348.2 2175.25 1353.72C2165.68 1359.24 2155.14 1362 2143.65 1362C2132.38 1362 2121.96 1359.24 2112.39 1353.72C2102.81 1348.2 2095.15 1340.2 2089.4 1329.72C2083.66 1319.25 2080.78 1307.02 2080.78 1293.05C2080.78 1279.31 2083.66 1267.19 2089.4 1256.72C2095.15 1246.24 2102.81 1238.24 2112.39 1232.72C2121.96 1227.2 2132.38 1224.44 2143.65 1224.44C2155.14 1224.44 2165.68 1227.14 2175.25 1232.55C2184.83 1237.96 2192.44 1245.84 2198.07 1256.21Z" fill="#8C8C8C"/>
<path id="Path" d="M2438.05 1200.78L2326.51 1473.2H2294.74L2331.24 1383.97L2256.54 1200.78H2290.68L2348.82 1350.85L2406.28 1200.78H2438.05Z" fill="#8C8C8C"/>
<path id="Shape_2" fill-rule="evenodd" clip-rule="evenodd" d="M2625.64 1296.43L2674.99 1386H2740.22L2685.47 1292.04C2702.82 1286.85 2715.94 1278.07 2724.84 1265.67C2733.74 1253.28 2738.19 1239.2 2738.19 1223.42C2738.19 1209.45 2734.93 1196.78 2728.39 1185.4C2721.86 1174.02 2712 1165.06 2698.82 1158.53C2685.64 1151.99 2669.69 1148.72 2650.99 1148.72H2553.98V1386H2611.78V1296.43H2625.64ZM2647.61 1255.53H2611.78V1196.72H2647.61C2658.2 1196.72 2666.14 1199.31 2671.44 1204.49C2676.74 1209.68 2679.38 1216.78 2679.38 1225.79C2679.38 1235.25 2676.74 1242.58 2671.44 1247.76C2666.14 1252.94 2658.2 1255.53 2647.61 1255.53Z" fill="#8C8C8C"/>
<path id="Shape_3" fill-rule="evenodd" clip-rule="evenodd" d="M2951.13 1305.56C2951.81 1299.7 2952.15 1294.07 2952.15 1288.66C2952.15 1269.73 2948.15 1253.17 2940.15 1238.97C2932.15 1224.78 2921.05 1213.85 2906.86 1206.19C2892.66 1198.52 2876.44 1194.69 2858.18 1194.69C2839.48 1194.69 2822.92 1198.64 2808.5 1206.52C2794.08 1214.41 2782.87 1225.68 2774.87 1240.32C2766.87 1254.97 2762.87 1272.1 2762.87 1291.7C2762.87 1311.3 2766.92 1328.43 2775.04 1343.08C2783.15 1357.72 2794.41 1368.99 2808.84 1376.88C2823.26 1384.76 2839.71 1388.71 2858.18 1388.71C2873.51 1388.71 2887.36 1385.89 2899.76 1380.26C2912.15 1374.62 2922.46 1366.85 2930.68 1356.93C2938.91 1347.02 2944.6 1335.86 2947.75 1323.47H2886.24C2880.6 1335.64 2870.58 1341.72 2856.16 1341.72C2846.47 1341.72 2838.3 1338.63 2831.65 1332.43C2825 1326.23 2821.23 1317.27 2820.33 1305.56H2951.13ZM2882.86 1249.79C2889.62 1255.65 2893 1263.53 2893 1273.45H2820.67C2822.24 1263.08 2826.36 1255.08 2833 1249.45C2839.65 1243.82 2847.82 1241 2857.51 1241C2867.65 1241 2876.1 1243.93 2882.86 1249.79Z" fill="#8C8C8C"/>
<path id="Shape_4" fill-rule="evenodd" clip-rule="evenodd" d="M2982.06 1240.32C2974.74 1254.97 2971.08 1271.98 2971.08 1291.36C2971.08 1310.74 2974.74 1327.81 2982.06 1342.57C2989.38 1357.33 2999.36 1368.71 3011.97 1376.71C3024.59 1384.71 3038.68 1388.7 3054.22 1388.7C3067.52 1388.7 3079.18 1386 3089.21 1380.59C3099.23 1375.18 3106.95 1367.97 3112.36 1358.96V1386H3170.16V1135.88H3112.36V1223.42C3106.5 1214.63 3098.45 1207.65 3088.19 1202.47C3077.94 1197.28 3066.62 1194.69 3054.22 1194.69C3038.68 1194.69 3024.59 1198.64 3011.97 1206.52C2999.36 1214.41 2989.38 1225.68 2982.06 1240.32ZM3100.36 1257.56C3108.36 1265.9 3112.36 1277.28 3112.36 1291.7C3112.36 1306.12 3108.36 1317.5 3100.36 1325.84C3092.36 1334.17 3082.62 1338.34 3071.12 1338.34C3059.63 1338.34 3049.89 1334.12 3041.89 1325.67C3033.89 1317.22 3029.89 1305.78 3029.89 1291.36C3029.89 1276.94 3033.89 1265.62 3041.89 1257.39C3049.89 1249.17 3059.63 1245.05 3071.12 1245.05C3082.62 1245.05 3092.36 1249.22 3100.36 1257.56Z" fill="#8C8C8C"/>
<path id="Path_2" d="M3297.92 1388.37C3280.57 1388.37 3265.02 1385.55 3251.28 1379.92C3237.53 1374.28 3226.55 1365.95 3218.32 1354.91C3210.1 1343.86 3205.76 1330.57 3205.31 1315.02H3266.82C3267.73 1323.81 3270.77 1330.51 3275.95 1335.13C3281.13 1339.75 3287.89 1342.06 3296.23 1342.06C3304.79 1342.06 3311.55 1340.09 3316.51 1336.15C3321.47 1332.2 3323.95 1326.74 3323.95 1319.75C3323.95 1313.9 3321.97 1309.05 3318.03 1305.22C3314.09 1301.39 3309.24 1298.23 3303.5 1295.76C3297.75 1293.28 3289.58 1290.46 3278.99 1287.31C3263.67 1282.57 3251.16 1277.84 3241.47 1273.11C3231.79 1268.38 3223.45 1261.39 3216.46 1252.15C3209.48 1242.92 3205.98 1230.86 3205.98 1215.99C3205.98 1193.91 3213.98 1176.61 3229.98 1164.1C3245.98 1151.6 3266.82 1145.35 3292.51 1145.35C3318.65 1145.35 3339.72 1151.6 3355.72 1164.1C3371.72 1176.61 3380.28 1194.02 3381.41 1216.33H3318.88C3318.43 1208.66 3315.61 1202.64 3310.43 1198.24C3305.24 1193.85 3298.6 1191.65 3290.48 1191.65C3283.5 1191.65 3277.87 1193.51 3273.58 1197.23C3269.3 1200.95 3267.16 1206.3 3267.16 1213.28C3267.16 1220.95 3270.77 1226.92 3277.98 1231.2C3285.19 1235.48 3296.46 1240.1 3311.78 1245.06C3327.1 1250.24 3339.55 1255.2 3349.13 1259.93C3358.7 1264.66 3366.99 1271.53 3373.97 1280.55C3380.96 1289.56 3384.45 1301.16 3384.45 1315.36C3384.45 1328.88 3381.01 1341.16 3374.14 1352.2C3367.27 1363.24 3357.3 1372.03 3344.23 1378.57C3331.16 1385.1 3315.72 1388.37 3297.92 1388.37Z" fill="#8C8C8C"/>
<path id="Path_3" d="M3525.06 1336.99V1386H3495.65C3474.7 1386 3458.36 1380.88 3446.64 1370.62C3434.92 1360.37 3429.07 1343.64 3429.07 1320.43V1245.39H3406.08V1197.4H3429.07V1151.43H3486.86V1197.4H3524.72V1245.39H3486.86V1321.11C3486.86 1326.74 3488.22 1330.8 3490.92 1333.27C3493.62 1335.75 3498.13 1336.99 3504.44 1336.99H3525.06Z" fill="#8C8C8C"/>
<path id="Shape_5" fill-rule="evenodd" clip-rule="evenodd" d="M3593.16 1376.88C3607.92 1384.76 3624.54 1388.71 3643.02 1388.71C3661.5 1388.71 3678.23 1384.76 3693.21 1376.88C3708.2 1368.99 3720.03 1357.67 3728.7 1342.91C3737.38 1328.15 3741.72 1311.08 3741.72 1291.7C3741.72 1272.32 3737.43 1255.25 3728.87 1240.49C3720.31 1225.73 3708.59 1214.41 3693.72 1206.52C3678.85 1198.64 3662.17 1194.69 3643.7 1194.69C3625.22 1194.69 3608.54 1198.64 3593.67 1206.52C3578.8 1214.41 3567.08 1225.73 3558.52 1240.49C3549.96 1255.25 3545.68 1272.32 3545.68 1291.7C3545.68 1311.3 3549.9 1328.43 3558.35 1343.08C3566.8 1357.72 3578.41 1368.99 3593.16 1376.88ZM3671.24 1326.51C3663.47 1334.62 3654.06 1338.68 3643.02 1338.68C3631.98 1338.68 3622.8 1334.62 3615.47 1326.51C3608.15 1318.4 3604.49 1306.8 3604.49 1291.7C3604.49 1276.38 3608.21 1264.72 3615.64 1256.72C3623.08 1248.72 3632.43 1244.72 3643.7 1244.72C3654.74 1244.72 3664.03 1248.77 3671.58 1256.88C3679.13 1265 3682.9 1276.6 3682.9 1291.7C3682.9 1306.8 3679.02 1318.4 3671.24 1326.51Z" fill="#8C8C8C"/>
<path id="Path_4" d="M3887.39 1195.37C3909.48 1195.37 3927.11 1202.52 3940.29 1216.83C3953.47 1231.14 3960.06 1250.8 3960.06 1275.81V1386H3902.6V1283.59C3902.6 1270.97 3899.34 1261.17 3892.8 1254.18C3886.27 1247.2 3877.48 1243.7 3866.44 1243.7C3855.4 1243.7 3846.61 1247.2 3840.07 1254.18C3833.54 1261.17 3830.27 1270.97 3830.27 1283.59V1386H3772.47V1197.4H3830.27V1222.41C3836.13 1214.07 3844.02 1207.48 3853.93 1202.64C3863.85 1197.79 3875 1195.37 3887.39 1195.37Z" fill="#8C8C8C"/>
<path id="Shape_6" fill-rule="evenodd" clip-rule="evenodd" d="M4177.06 1305.56C4177.73 1299.7 4178.07 1294.07 4178.07 1288.66C4178.07 1269.73 4174.07 1253.17 4166.07 1238.97C4158.07 1224.78 4146.98 1213.85 4132.78 1206.19C4118.58 1198.52 4102.36 1194.69 4084.11 1194.69C4065.41 1194.69 4048.84 1198.64 4034.42 1206.52C4020 1214.41 4008.79 1225.68 4000.79 1240.32C3992.79 1254.97 3988.79 1272.1 3988.79 1291.7C3988.79 1311.3 3992.85 1328.43 4000.96 1343.08C4009.07 1357.72 4020.34 1368.99 4034.76 1376.88C4049.18 1384.76 4065.63 1388.71 4084.11 1388.71C4099.43 1388.71 4113.29 1385.89 4125.68 1380.26C4138.08 1374.62 4148.39 1366.85 4156.61 1356.93C4164.83 1347.02 4170.52 1335.86 4173.68 1323.47H4112.16C4106.53 1335.64 4096.5 1341.72 4082.08 1341.72C4072.39 1341.72 4064.22 1338.63 4057.58 1332.43C4050.93 1326.23 4047.15 1317.27 4046.25 1305.56H4177.06ZM4108.78 1249.79C4115.54 1255.65 4118.92 1263.53 4118.92 1273.45H4046.59C4048.17 1263.08 4052.28 1255.08 4058.93 1249.45C4065.58 1243.82 4073.74 1241 4083.43 1241C4093.57 1241 4102.02 1243.93 4108.78 1249.79Z" fill="#8C8C8C"/>
</g>
<g id="Warp Copy 7">
<path id="Path_5" d="M2192.22 940.706C2188.02 940.706 2184.26 938.076 2182.83 934.125L1994.95 417.836C1992.58 411.313 1997.41 404.416 2004.35 404.416H2097.24C2101.44 404.416 2105.19 407.038 2106.63 410.981L2223.62 730.817C2224.87 734.239 2229.67 734.342 2231.07 730.976L2347.39 450.584C2348.94 446.85 2352.58 444.416 2356.63 444.416H2444.82C2448.85 444.416 2452.49 446.841 2454.05 450.564L2571.09 731.006C2572.49 734.367 2577.29 734.258 2578.54 730.838L2695.33 410.986C2696.77 407.041 2700.53 404.416 2704.73 404.416H2797.19C2804.13 404.416 2808.96 411.313 2806.59 417.836L2618.72 934.125C2617.28 938.076 2613.53 940.706 2609.32 940.706H2539.85C2535.72 940.706 2532.02 938.171 2530.53 934.324L2404.14 608.645C2402.82 605.238 2397.99 605.242 2396.68 608.651L2270.9 934.308C2269.42 938.164 2265.71 940.706 2261.58 940.706H2192.22Z" fill="#233562"/>
<path id="Shape_7" fill-rule="evenodd" clip-rule="evenodd" d="M2877.34 926.199C2893.38 935.871 2911.01 940.706 2930.26 940.706H3253.21C3258.74 940.706 3263.21 936.229 3263.21 930.706V614.045C3263.21 595.121 3258.46 577.642 3248.95 561.609C3239.44 545.575 3226.76 532.748 3210.92 523.127C3195.07 513.506 3177.35 508.695 3157.75 508.695H2870.91C2865.38 508.695 2860.91 513.172 2860.91 518.695V604.801C2860.91 610.324 2865.38 614.801 2870.91 614.801H3152.67C3153.86 614.801 3154.88 615.224 3155.72 616.07C3156.57 616.915 3156.99 617.932 3156.99 619.119V667.4C3156.99 669.581 3155.24 671.36 3153.06 671.399L2917.21 675.66C2865.96 676.586 2824.91 718.392 2824.91 769.645V835.357C2824.91 854.444 2829.64 871.938 2839.1 887.84C2848.56 903.741 2861.31 916.528 2877.34 926.199ZM3152.99 834.601H2935.33C2934.14 834.601 2933.13 834.178 2932.28 833.333C2931.43 832.487 2931.01 831.471 2931.01 830.283V769.389C2931.01 767.18 2932.8 765.389 2935.01 765.389H3152.99C3155.2 765.389 3156.99 767.18 3156.99 769.389V830.601C3156.99 832.81 3155.2 834.601 3152.99 834.601Z" fill="#233562"/>
<path id="Path_6" d="M3357.83 940.706C3352.31 940.706 3347.83 936.229 3347.83 930.706V614.045C3347.83 594.958 3352.67 577.464 3362.34 561.562C3372.01 545.66 3384.86 532.874 3400.89 523.202C3416.93 513.531 3434.57 508.695 3453.81 508.695H3682.82C3688.34 508.695 3692.82 513.172 3692.82 518.695V604.801C3692.82 610.324 3688.34 614.801 3682.82 614.801H3458.25C3457.07 614.801 3456.05 615.224 3455.2 616.07C3454.36 616.915 3453.94 617.932 3453.94 619.119V930.706C3453.94 936.229 3449.46 940.706 3443.94 940.706H3357.83Z" fill="#233562"/>
<path id="Shape_8" fill-rule="evenodd" clip-rule="evenodd" d="M3759.56 1042.02C3759.56 1047.54 3764.04 1052.02 3769.56 1052.02H3855.67C3861.19 1052.02 3865.67 1047.54 3865.67 1042.02V944.706C3865.67 942.497 3867.46 940.706 3869.67 940.706H4092.52C4111.76 940.706 4129.4 935.871 4145.43 926.199C4161.47 916.528 4174.21 903.741 4183.68 887.84C4193.14 871.938 4197.87 854.444 4197.87 835.357V614.045C4197.87 594.958 4193.14 577.464 4183.68 561.562C4174.21 545.66 4161.47 532.874 4145.43 523.202C4129.4 513.531 4111.76 508.695 4092.52 508.695H3769.56C3764.04 508.695 3759.56 513.172 3759.56 518.695V1042.02ZM4087.44 834.601H3870.09C3868.91 834.601 3867.88 834.178 3866.99 833.332C3866.11 832.486 3865.67 831.47 3865.67 830.283V619.119C3865.67 617.932 3866.11 616.915 3866.99 616.07C3867.88 615.224 3868.91 614.801 3870.09 614.801H4087.44C4088.62 614.801 4089.64 615.224 4090.49 616.07C4091.34 616.915 4091.76 617.932 4091.76 619.119V830.283C4091.76 831.47 4091.34 832.486 4090.49 833.332C4089.64 834.178 4088.62 834.601 4087.44 834.601Z" fill="#233562"/>
</g>
<g id="Group 52">
<path id="Union" d="M1606.76 540.238C1617.1 551.764 1616.97 569.262 1606.46 580.632L1167.98 1055.03C1157.83 1066.01 1140.41 1065.81 1130.52 1054.59L993.397 899.044C987.34 892.173 976.617 892.213 970.611 899.128L835.644 1054.55C825.791 1065.89 808.268 1066.16 798.067 1055.13L356.935 578.009C346.443 566.66 346.289 549.198 356.58 537.667L428.864 456.672C439.053 445.255 456.85 445.063 467.283 456.258L801.264 814.643C807.394 821.221 817.873 821.037 823.769 814.248L961.529 655.615C971.844 643.737 990.261 643.669 1000.66 655.469L1140.98 814.634C1146.91 821.359 1157.35 821.488 1163.44 814.912L1494.48 457.586C1504.88 446.357 1522.69 446.5 1532.91 457.896L1606.76 540.238Z" fill="#233562"/>
<path id="Union_2" fill-rule="evenodd" clip-rule="evenodd" d="M1259.22 190.656C1281.93 190.656 1303.56 200.304 1318.74 217.194L1439.91 352.077C1448.92 362.104 1448.77 377.353 1439.56 387.203L1360.75 471.556C1350.32 482.719 1332.56 482.527 1322.37 471.14L1224.95 362.227C1222.07 359.017 1217.97 357.182 1213.66 357.182L748.33 357.182C744.023 357.182 739.919 359.017 737.047 362.227L640.333 470.343C630.152 481.724 612.402 481.922 601.969 470.771L523.39 386.783C514.189 376.949 514.02 361.717 523.001 351.681L643.245 217.309C658.421 200.349 680.102 190.656 702.861 190.656L1259.22 190.656ZM1752 703.559C1779.73 734.371 1779.34 781.262 1751.08 811.598L1039.71 1575.46C1008.01 1609.5 954.075 1609.42 922.472 1575.3L212.829 809.134C185.052 779.145 184.352 733.038 211.205 702.218L255.89 650.933C266.082 639.235 284.186 639.01 294.666 650.452L969.864 1387.63C975.856 1394.17 986.163 1394.18 992.169 1387.65L1668.11 652.873C1678.49 641.594 1696.32 641.691 1706.57 653.083L1752 703.559ZM992.902 1033.15C986.867 1026.22 976.094 1026.22 970.059 1033.15L886.279 1129.45C877.955 1139.02 878.027 1153.28 886.446 1162.76L970.159 1257.06C976.182 1263.84 986.779 1263.84 992.802 1257.06L1076.51 1162.76C1084.93 1153.28 1085.01 1139.02 1076.68 1129.45L992.902 1033.15Z" fill="url(#paint0_linear_641_2389)"/>
</g>
</g>
<defs>
<linearGradient id="paint0_linear_641_2389" x1="-220.387" y1="639.481" x2="834.721" y2="2085.36" gradientUnits="userSpaceOnUse">
<stop stop-color="#7398FF"/>
<stop offset="1" stop-color="#4D6DFA"/>
</linearGradient>
</defs>
</svg>
