<?xml version="1.0" encoding="UTF-8"?>
<svg width="2077px" height="872px" viewBox="0 0 2077 872" version="1.1" xmlns="http://www.w3.org/2000/svg" xmlns:xlink="http://www.w3.org/1999/xlink">
    <title>Warp – logo full</title>
    <defs>
        <linearGradient x1="23.3678943%" y1="42.9793595%" x2="80.1815768%" y2="58.2030426%" id="linearGradient-1">
            <stop stop-color="#7398FF" offset="0%"></stop>
            <stop stop-color="#4D6DFA" offset="100%"></stop>
        </linearGradient>
    </defs>
    <g id="Warp-–-logo-full" stroke="none" stroke-width="1" fill="none" fill-rule="evenodd">
        <g id="by-RedStone" transform="translate(919.013000, 567.940000)" fill="#8C8C8C" fill-rule="nonzero">
            <path d="M15.379,49.686 C18.5336667,44.1653333 23.153,39.6586667 29.237,36.166 C35.321,32.6733333 42.25,30.927 50.024,30.927 C58.3613333,30.927 65.8536667,32.8986667 72.501,36.842 C79.1483333,40.7853333 84.3873333,46.3341667 88.218,53.4885 C92.0486667,60.6428333 93.964,68.952 93.964,78.416 C93.964,87.7673333 92.0486667,96.1046667 88.218,103.428 C84.3873333,110.751333 79.1201667,116.441 72.4165,120.497 C65.7128333,124.553 58.2486667,126.581 50.024,126.581 C42.0246667,126.581 35.0111667,124.834667 28.9835,121.342 C22.9558333,117.849333 18.421,113.399 15.379,107.991 L15.379,125.06 L0,125.06 L0,0 L15.379,0 L15.379,49.686 Z M78.247,78.416 C78.247,71.4306667 76.8386667,65.3466667 74.022,60.164 C71.2053333,54.9813333 67.4028333,51.038 62.6145,48.334 C57.8261667,45.63 52.559,44.278 46.813,44.278 C41.1796667,44.278 35.9688333,45.6581667 31.1805,48.4185 C26.3921667,51.1788333 22.5615,55.1785 19.6885,60.4175 C16.8155,65.6565 15.379,71.7123333 15.379,78.585 C15.379,85.5703333 16.8155,91.6825 19.6885,96.9215 C22.5615,102.1605 26.3921667,106.160167 31.1805,108.9205 C35.9688333,111.680833 41.1796667,113.061 46.813,113.061 C52.559,113.061 57.8261667,111.680833 62.6145,108.9205 C67.4028333,106.160167 71.2053333,102.1605 74.022,96.9215 C76.8386667,91.6825 78.247,85.514 78.247,78.416 Z" id="Shape"></path>
            <polygon id="Path" points="194.012 32.448 138.242 168.662 122.356 168.662 140.608 124.046 103.259 32.448 120.328 32.448 149.396 107.484 178.126 32.448"></polygon>
            <path d="M312.481,125.06 L287.807,80.275 L280.878,80.275 L280.878,125.06 L251.979,125.06 L251.979,6.422 L300.482,6.422 C309.833333,6.422 317.8045,8.05566667 324.3955,11.323 C330.9865,14.5903333 335.915667,19.0688333 339.183,24.7585 C342.450333,30.4481667 344.084,36.7856667 344.084,43.771 C344.084,51.6576667 341.858833,58.6993333 337.4085,64.896 C332.958167,71.0926667 326.395333,75.4866667 317.72,78.078 L345.098,125.06 L312.481,125.06 Z M280.878,59.826 L298.792,59.826 C304.087333,59.826 308.058833,58.5303333 310.7065,55.939 C313.354167,53.3476667 314.678,49.686 314.678,44.954 C314.678,40.4473333 313.354167,36.8983333 310.7065,34.307 C308.058833,31.7156667 304.087333,30.42 298.792,30.42 L280.878,30.42 L280.878,59.826 Z" id="Shape"></path>
            <path d="M451.061,76.388 C451.061,79.092 450.892,81.9086667 450.554,84.838 L385.151,84.838 C385.601667,90.6966667 387.488833,95.1751667 390.8125,98.2735 C394.136167,101.371833 398.220333,102.921 403.065,102.921 C410.275667,102.921 415.289333,99.879 418.106,93.795 L448.864,93.795 C447.286667,99.9916667 444.441833,105.568667 440.3295,110.526 C436.217167,115.483333 431.062667,119.370333 424.866,122.187 C418.669333,125.003667 411.740333,126.412 404.079,126.412 C394.840333,126.412 386.615667,124.440333 379.405,120.497 C372.194333,116.553667 366.561,110.920333 362.505,103.597 C358.449,96.2736667 356.421,87.711 356.421,77.909 C356.421,68.107 358.420833,59.5443333 362.4205,52.221 C366.420167,44.8976667 372.025333,39.2643333 379.236,35.321 C386.446667,31.3776667 394.727667,29.406 404.079,29.406 C413.205,29.406 421.317,31.3213333 428.415,35.152 C435.513,38.9826667 441.061833,44.447 445.0615,51.545 C449.061167,58.643 451.061,66.924 451.061,76.388 Z M421.486,68.783 C421.486,63.8256667 419.796,59.8823333 416.416,56.953 C413.036,54.0236667 408.811,52.559 403.741,52.559 C398.896333,52.559 394.812167,53.9673333 391.4885,56.784 C388.164833,59.6006667 386.108667,63.6003333 385.32,68.783 L421.486,68.783 Z" id="Shape"></path>
            <path d="M460.525,77.74 C460.525,68.0506667 462.355833,59.5443333 466.0175,52.221 C469.679167,44.8976667 474.664667,39.2643333 480.974,35.321 C487.283333,31.3776667 494.325,29.406 502.099,29.406 C508.295667,29.406 513.957167,30.7016667 519.0835,33.293 C524.209833,35.8843333 528.237667,39.377 531.167,43.771 L531.167,0 L560.066,0 L560.066,125.06 L531.167,125.06 L531.167,111.54 C528.463,116.046667 524.604167,119.652 519.5905,122.356 C514.576833,125.06 508.746333,126.412 502.099,126.412 C494.325,126.412 487.283333,124.412167 480.974,120.4125 C474.664667,116.412833 469.679167,110.723167 466.0175,103.3435 C462.355833,95.9638333 460.525,87.4293333 460.525,77.74 Z M531.167,77.909 C531.167,70.6983333 529.167167,65.0086667 525.1675,60.84 C521.167833,56.6713333 516.295,54.587 510.549,54.587 C504.803,54.587 499.930167,56.6431667 495.9305,60.7555 C491.930833,64.8678333 489.931,70.5293333 489.931,77.74 C489.931,84.9506667 491.930833,90.6685 495.9305,94.8935 C499.930167,99.1185 504.803,101.231 510.549,101.231 C516.295,101.231 521.167833,99.1466667 525.1675,94.978 C529.167167,90.8093333 531.167,85.1196667 531.167,77.909 Z" id="Shape"></path>
            <path d="M623.948,126.243 C615.272667,126.243 607.498667,124.834667 600.626,122.018 C593.753333,119.201333 588.260833,115.032667 584.1485,109.512 C580.036167,103.991333 577.867333,97.344 577.642,89.57 L608.4,89.57 C608.850667,93.964 610.371667,97.3158333 612.963,99.6255 C615.554333,101.935167 618.934333,103.09 623.103,103.09 C627.384333,103.09 630.764333,102.104167 633.243,100.1325 C635.721667,98.1608333 636.961,95.4286667 636.961,91.936 C636.961,89.0066667 635.975167,86.5843333 634.0035,84.669 C632.031833,82.7536667 629.6095,81.1763333 626.7365,79.937 C623.8635,78.6976667 619.779333,77.2893333 614.484,75.712 C606.822667,73.346 600.569667,70.98 595.725,68.614 C590.880333,66.248 586.711667,62.7553333 583.219,58.136 C579.726333,53.5166667 577.98,47.489 577.98,40.053 C577.98,29.0116667 581.979667,20.3645 589.979,14.1115 C597.978333,7.8585 608.4,4.732 621.244,4.732 C634.313333,4.732 644.847667,7.8585 652.847,14.1115 C660.846333,20.3645 665.127667,29.068 665.691,40.222 L634.426,40.222 C634.200667,36.3913333 632.792333,33.3775 630.201,31.1805 C627.609667,28.9835 624.286,27.885 620.23,27.885 C616.737333,27.885 613.920667,28.8145 611.78,30.6735 C609.639333,32.5325 608.569,35.2083333 608.569,38.701 C608.569,42.5316667 610.371667,45.5173333 613.977,47.658 C617.582333,49.7986667 623.215667,52.1083333 630.877,54.587 C638.538333,57.1783333 644.763167,59.657 649.5515,62.023 C654.339833,64.389 658.480333,67.8253333 661.973,72.332 C665.465667,76.8386667 667.212,82.641 667.212,89.739 C667.212,96.499 665.493833,102.639333 662.0575,108.16 C658.621167,113.680667 653.635667,118.074667 647.101,121.342 C640.566333,124.609333 632.848667,126.243 623.948,126.243 Z" id="Path"></path>
            <path d="M737.516,100.555 L737.516,125.06 L722.813,125.06 C712.335,125.06 704.166667,122.496833 698.308,117.3705 C692.449333,112.244167 689.52,103.878667 689.52,92.274 L689.52,54.756 L678.028,54.756 L678.028,30.758 L689.52,30.758 L689.52,7.774 L718.419,7.774 L718.419,30.758 L737.347,30.758 L737.347,54.756 L718.419,54.756 L718.419,92.612 C718.419,95.4286667 719.095,97.4566667 720.447,98.696 C721.799,99.9353333 724.052333,100.555 727.207,100.555 L737.516,100.555 Z" id="Path"></path>
            <path d="M796.497,126.412 C787.258333,126.412 778.949167,124.440333 771.5695,120.497 C764.189833,116.553667 758.3875,110.920333 754.1625,103.597 C749.9375,96.2736667 747.825,87.711 747.825,77.909 C747.825,68.2196667 749.965667,59.6851667 754.247,52.3055 C758.528333,44.9258333 764.387,39.2643333 771.823,35.321 C779.259,31.3776667 787.596333,29.406 796.835,29.406 C806.073667,29.406 814.411,31.3776667 821.847,35.321 C829.283,39.2643333 835.141667,44.9258333 839.423,52.3055 C843.704333,59.6851667 845.845,68.2196667 845.845,77.909 C845.845,87.5983333 843.676167,96.1328333 839.3385,103.5125 C835.000833,110.892167 829.085833,116.553667 821.5935,120.497 C814.101167,124.440333 805.735667,126.412 796.497,126.412 Z M796.497,101.4 C802.017667,101.4 806.7215,99.372 810.6085,95.316 C814.4955,91.26 816.439,85.4576667 816.439,77.909 C816.439,70.3603333 814.551833,64.558 810.7775,60.502 C807.003167,56.446 802.355667,54.418 796.835,54.418 C791.201667,54.418 786.526,56.4178333 782.808,60.4175 C779.09,64.4171667 777.231,70.2476667 777.231,77.909 C777.231,85.4576667 779.061833,91.26 782.7235,95.316 C786.385167,99.372 790.976333,101.4 796.497,101.4 Z" id="Shape"></path>
            <path d="M918.684,29.744 C929.725333,29.744 938.5415,33.3211667 945.1325,40.4755 C951.7235,47.6298333 955.019,57.46 955.019,69.966 L955.019,125.06 L926.289,125.06 L926.289,73.853 C926.289,67.5436667 924.655333,62.6426667 921.388,59.15 C918.120667,55.6573333 913.726667,53.911 908.206,53.911 C902.685333,53.911 898.291333,55.6573333 895.024,59.15 C891.756667,62.6426667 890.123,67.5436667 890.123,73.853 L890.123,125.06 L861.224,125.06 L861.224,30.758 L890.123,30.758 L890.123,43.264 C893.052333,39.0953333 896.995667,35.7998333 901.953,33.3775 C906.910333,30.9551667 912.487333,29.744 918.684,29.744 Z" id="Path"></path>
            <path d="M1064.024,76.388 C1064.024,79.092 1063.855,81.9086667 1063.517,84.838 L998.114,84.838 C998.564667,90.6966667 1000.45183,95.1751667 1003.7755,98.2735 C1007.09917,101.371833 1011.18333,102.921 1016.028,102.921 C1023.23867,102.921 1028.25233,99.879 1031.069,93.795 L1061.827,93.795 C1060.24967,99.9916667 1057.40483,105.568667 1053.2925,110.526 C1049.18017,115.483333 1044.02567,119.370333 1037.829,122.187 C1031.63233,125.003667 1024.70333,126.412 1017.042,126.412 C1007.80333,126.412 999.578667,124.440333 992.368,120.497 C985.157333,116.553667 979.524,110.920333 975.468,103.597 C971.412,96.2736667 969.384,87.711 969.384,77.909 C969.384,68.107 971.383833,59.5443333 975.3835,52.221 C979.383167,44.8976667 984.988333,39.2643333 992.199,35.321 C999.409667,31.3776667 1007.69067,29.406 1017.042,29.406 C1026.168,29.406 1034.28,31.3213333 1041.378,35.152 C1048.476,38.9826667 1054.02483,44.447 1058.0245,51.545 C1062.02417,58.643 1064.024,66.924 1064.024,76.388 Z M1034.449,68.783 C1034.449,63.8256667 1032.759,59.8823333 1029.379,56.953 C1025.999,54.0236667 1021.774,52.559 1016.704,52.559 C1011.85933,52.559 1007.77517,53.9673333 1004.4515,56.784 C1001.12783,59.6006667 999.071667,63.6003333 998.283,68.783 L1034.449,68.783 Z" id="Shape"></path>
        </g>
        <g id="Warp-Copy-7" transform="translate(889.034818, 202.207982)" fill="#233562" fill-rule="nonzero">
            <path d="M96.377642,264.854589 L2.44160828,6.70976321 C1.49733213,4.11480586 2.83547364,1.24569022 5.430431,0.301414069 C5.97841497,0.102008789 6.55705709,6.32436949e-15 7.14019421,0 L53.584591,0 C55.683666,-3.22612176e-15 57.5592602,1.31108133 58.2803255,3.2824212 L116.774232,163.200475 C117.153669,164.237828 118.302205,164.771175 119.339558,164.391738 C119.864782,164.199624 120.285577,163.796376 120.499873,163.279805 L178.659258,23.0840969 C179.433793,21.2170465 181.256294,20 183.277626,20 L227.373439,20 C229.390868,20 231.210652,21.2124126 231.987686,23.074196 L290.510356,163.295149 C290.935793,164.314501 292.107026,164.795964 293.126377,164.370527 C293.641463,164.15555 294.043283,163.735114 294.234727,163.210826 L352.631774,3.28500395 C353.352101,1.31232142 355.22837,-2.74151592e-14 357.328452,0 L403.561314,0 C406.322738,-3.51462237e-14 408.561314,2.23857625 408.561314,5 C408.561314,5.58313712 408.459305,6.16177924 408.2599,6.70976321 L314.323866,264.854589 C313.605039,266.82999 311.727404,268.144825 309.62528,268.144825 L274.890439,268.144825 C272.827095,268.144825 270.975659,266.87737 270.229151,264.953803 L207.03357,102.114388 C206.633942,101.084644 205.475207,100.573835 204.445464,100.973463 C203.920758,101.177094 203.506139,101.592389 203.303363,102.117426 L140.416941,264.946206 C139.672495,266.873763 137.819031,268.144825 135.752712,268.144825 L101.076228,268.144825 C98.9741044,268.144825 97.0964687,266.82999 96.377642,264.854589 Z" id="Path"></path>
            <path d="M470.092979,268.144825 C460.472042,268.144825 451.653173,265.726983 443.636372,260.891298 C435.619571,256.055614 429.245701,249.662346 424.51476,241.711495 C419.783819,233.760644 417.418349,225.013544 417.418349,215.470195 L417.418349,182.614078 C417.418349,156.987667 437.947079,136.084681 463.569308,135.621747 L581.49711,133.491069 C582.587417,133.47137 583.46098,132.581881 583.46098,131.491395 L583.46098,107.351036 L583.46098,107.351036 C583.46098,106.757486 583.249552,106.249284 582.826697,105.826428 C582.403841,105.403572 581.895638,105.192144 581.302089,105.192144 L440.418349,105.192144 C437.656925,105.192144 435.418349,102.953568 435.418349,100.192144 L435.418349,57.1392716 C435.418349,54.3778479 437.656925,52.1392716 440.418349,52.1392716 L583.839223,52.1392716 L583.839223,52.1392716 C593.638613,52.1392716 602.500155,54.5445059 610.42385,59.3549744 C618.347545,64.1654429 624.686502,70.5790776 629.440719,78.5958786 C634.194936,86.6126795 636.572044,95.3520206 636.572044,104.813902 L636.572044,263.144825 C636.572044,265.906249 634.333468,268.144825 631.572044,268.144825 L470.092979,268.144825 L470.092979,268.144825 Z M472.630113,215.091953 L581.46098,215.091953 C582.56555,215.091953 583.46098,214.196522 583.46098,213.091953 L583.46098,182.485675 C583.46098,181.381106 582.56555,180.485675 581.46098,180.485675 L472.471222,180.485675 C471.366652,180.485675 470.471222,181.381106 470.471222,182.485675 L470.471222,212.933061 L470.471222,212.933061 C470.471222,213.526611 470.68265,214.034814 471.105505,214.457669 C471.528361,214.880525 472.036564,215.091953 472.630113,215.091953 Z" id="Shape"></path>
            <path d="M678.880167,263.144825 L678.880167,104.813902 L678.880167,104.813902 C678.880167,95.270553 681.298009,86.5234531 686.133694,78.5726021 C690.969379,70.6217511 697.395621,64.2284833 705.412422,59.3927986 C713.429223,54.557114 722.248092,52.1392716 731.869029,52.1392716 L846.376197,52.1392716 C849.137621,52.1392716 851.376197,54.3778479 851.376197,57.1392716 L851.376197,100.192144 C851.376197,102.953568 849.137621,105.192144 846.376197,105.192144 L734.091931,105.192144 L734.091931,105.192144 C733.498382,105.192144 732.990179,105.403572 732.567323,105.826428 C732.144467,106.249284 731.93304,106.757486 731.93304,107.351036 L731.93304,263.144825 C731.93304,265.906249 729.694463,268.144825 726.93304,268.144825 L683.880167,268.144825 C681.118743,268.144825 678.880167,265.906249 678.880167,263.144825 Z" id="Path"></path>
            <path d="M884.744809,318.8022 L884.744809,57.1392716 C884.744809,54.3778479 886.983385,52.1392716 889.744809,52.1392716 L1051.22387,52.1392716 L1051.22387,52.1392716 C1060.84481,52.1392716 1069.66368,54.557114 1077.68048,59.3927986 C1085.69728,64.2284833 1092.07115,70.6217511 1096.80209,78.5726021 C1101.53303,86.5234531 1103.8985,95.270553 1103.8985,104.813902 L1103.8985,215.470195 C1103.8985,225.013544 1101.53303,233.760644 1096.80209,241.711495 C1092.07115,249.662346 1085.69728,256.055614 1077.68048,260.891298 C1069.66368,265.726983 1060.84481,268.144825 1051.22387,268.144825 L939.797681,268.144825 C938.693112,268.144825 937.797681,269.040256 937.797681,270.144825 L937.797681,318.8022 C937.797681,321.563624 935.559105,323.8022 932.797681,323.8022 L889.744809,323.8022 C886.983385,323.8022 884.744809,321.563624 884.744809,318.8022 Z M940.008945,215.091953 L1048.68674,215.091953 C1049.27641,215.091953 1049.78364,214.880525 1050.20844,214.457669 C1050.63323,214.034814 1050.84563,213.526611 1050.84563,212.933061 L1050.84563,107.351036 C1050.84563,106.757486 1050.63323,106.249284 1050.20844,105.826428 C1049.78364,105.403572 1049.27641,105.192144 1048.68674,105.192144 L940.008945,105.192144 C939.419275,105.192144 938.903313,105.403572 938.46106,105.826428 C938.018808,106.249284 937.797681,106.757486 937.797681,107.351036 L937.797681,212.933061 C937.797681,213.526611 938.018808,214.034814 938.46106,214.457669 C938.903313,214.880525 939.419275,215.091953 940.008945,215.091953 Z" id="Shape"></path>
        </g>
        <path d="M115.476086,232.287255 L394.807154,62.5730139 C400.455326,59.141332 407.544674,59.141332 413.192846,62.5730139 L691.368705,231.585381 C694.711225,233.616209 695.774562,237.972167 693.743735,241.314687 C693.080764,242.405863 692.135121,243.297505 691.00689,243.895241 L619.869647,281.583723 C614.358825,284.503354 607.71834,284.308178 602.388509,281.069921 L413.1946,166.120925 C407.546435,162.689256 400.457104,162.689256 394.808939,166.120925 L204.284714,281.878184 C198.943182,285.123552 192.286234,285.311988 186.769671,282.373976 L115.824339,244.589911 C112.37229,242.751419 111.064244,238.462587 112.902736,235.010538 C113.500468,233.888206 114.389364,232.947519 115.476086,232.287255 Z M258.008437,620.762266 L394.80877,703.880462 C400.457018,707.312268 407.546521,707.312268 413.194769,703.880462 L548.661331,621.572648 C554.229236,618.189658 561.205273,618.138078 566.822594,621.438366 L634.124269,660.979449 C637.496433,662.960663 638.624021,667.300433 636.642807,670.672597 C636.049532,671.682393 635.215073,672.529283 634.214159,673.137425 L413.19305,807.4269 C407.544775,810.858717 400.455238,810.858695 394.806983,807.426845 L173.717486,673.094008 C170.374997,671.063129 169.311727,666.707154 171.342606,663.364665 C171.929811,662.398224 172.739922,661.586461 173.705165,660.997289 L239.591558,620.781071 C245.243881,617.330965 252.34908,617.32371 258.008437,620.762266 Z M410.151382,537.323313 L486.826743,586.894838 C490.111205,589.018281 491.052396,593.402254 488.928953,596.686716 C488.384856,597.528305 487.668332,598.244829 486.826743,598.788926 L410.151382,648.360451 C406.056382,651.007917 400.789463,651.007917 396.694462,648.360451 L320.019101,598.788926 C316.734639,596.665483 315.793448,592.28151 317.916891,588.997048 C318.460988,588.155459 319.177512,587.438935 320.019101,586.894838 L396.694462,537.323313 C400.789463,534.675847 406.056382,534.675847 410.151382,537.323313 Z" id="Shape-Copy-16" fill="url(#linearGradient-1)" fill-rule="nonzero"></path>
        <path d="M723.170178,285.197867 C723.715043,286.221944 724,287.364189 724,288.524195 L724,598.740723 C724,611.068105 717.588581,622.508216 707.073778,628.942752 L705.072853,630.167219 C693.828709,637.048075 679.692968,637.112869 668.386219,630.335379 L652.827,621.009118 L642.401725,615.048014 L607.085,593.590118 L600.858807,589.858105 L600.9,589.832118 L413.186907,475.780153 C407.538665,472.348356 400.449174,472.348356 394.800931,475.780153 L207.094,589.827118 L207.16006,589.867418 L140.461835,630.5032 C129.160598,637.388459 114.963115,637.397134 103.653474,630.525688 L101.022662,628.927275 C90.4530073,622.505427 84,611.034049 84,598.666441 L84,290.114844 C84,286.203744 87.1705726,283.033171 91.0816722,283.033171 C92.2401434,283.033171 93.3809253,283.317376 94.4039964,283.860865 L163.089676,320.349015 C168.87303,323.421328 172.488046,329.435199 172.488046,335.983961 L172.488,507.307118 L394.800931,372.233694 C400.449174,368.801897 407.538665,368.801897 413.186907,372.233694 L635.515,507.317118 L635.515493,334.447839 C635.515493,327.903145 639.126061,321.892318 644.903855,318.818214 L713.592,282.272345 C717.044801,280.435265 721.333097,281.745066 723.170178,285.197867 Z" id="Combined-Shape" fill="#233562" fill-rule="nonzero"></path>
    </g>
</svg>